inDegrees=no
num_controls=7
num_derivatives=13
num_iterations=119
num_multipliers=7
num_parameters=0
num_slacks=7
num_states=26
objective=0.448428
objective_accelerations=0.048935
objective_balance=0.007347
objective_effort=0.036213
objective_height=0.350994
objective_ligament=0.004939
solver_duration=1766.125940
status=Solve_Succeeded
success=true
DataType=double
version=3
OpenSimVersion=4.5
endheader
time	/jointset/ground_pelvis/pelvis_tilt/value	/jointset/ground_pelvis/pelvis_tx/value	/jointset/ground_pelvis/pelvis_ty/value	/jointset/hip_l/hip_flexion_l/value	/jointset/hip_l/hip_adduction_l/value	/jointset/hip_l/hip_rotation_l/value	/jointset/back/lumbar_extension/value	/jointset/patellofemoral_l/patellar_flexion_l/value	/jointset/knee_l/knee_flexion_l/value	/jointset/knee_l/knee_adduction_l/value	/jointset/knee_l/knee_rotation_l/value	/jointset/ankle_l/ankle_angle_l/value	/jointset/subtalar_l/subtalar_angle_l/value	/jointset/ground_pelvis/pelvis_tilt/speed	/jointset/ground_pelvis/pelvis_tx/speed	/jointset/ground_pelvis/pelvis_ty/speed	/jointset/hip_l/hip_flexion_l/speed	/jointset/hip_l/hip_adduction_l/speed	/jointset/hip_l/hip_rotation_l/speed	/jointset/back/lumbar_extension/speed	/jointset/patellofemoral_l/patellar_flexion_l/speed	/jointset/knee_l/knee_flexion_l/speed	/jointset/knee_l/knee_adduction_l/speed	/jointset/knee_l/knee_rotation_l/speed	/jointset/ankle_l/ankle_angle_l/speed	/jointset/subtalar_l/subtalar_angle_l/speed	/forceset/tau_hip_flexion_l	/forceset/tau_hip_adduction_l	/forceset/tau_hip_rotation_l	/forceset/tau_knee_flexion_l	/forceset/tau_ankle_angle_l	/forceset/tau_subtalar_angle_l	/forceset/tau_lumbar_extension	lambda_cid13_p0	lambda_cid13_p1	lambda_cid13_p2	lambda_cid13_p3	lambda_cid13_p4	lambda_cid13_p5	lambda_cid14_p0	/jointset/ground_pelvis/pelvis_tilt/accel	/jointset/ground_pelvis/pelvis_tx/accel	/jointset/ground_pelvis/pelvis_ty/accel	/jointset/hip_l/hip_flexion_l/accel	/jointset/hip_l/hip_adduction_l/accel	/jointset/hip_l/hip_rotation_l/accel	/jointset/back/lumbar_extension/accel	/jointset/patellofemoral_l/patellar_flexion_l/accel	/jointset/knee_l/knee_flexion_l/accel	/jointset/knee_l/knee_adduction_l/accel	/jointset/knee_l/knee_rotation_l/accel	/jointset/ankle_l/ankle_angle_l/accel	/jointset/subtalar_l/subtalar_angle_l/accel	gamma_cid13_p0	gamma_cid13_p1	gamma_cid13_p2	gamma_cid13_p3	gamma_cid13_p4	gamma_cid13_p5	gamma_cid14_p0
0.5	-0.4414953748470721	-0.07191028036067745	0.7656928040477553	1.251577817826055	-0.3097541171391806	-0.04861351142327829	-0.3285300026483513	0.6816820618014022	0.6816820618014038	-0.1734829729851835	0.1744712931877678	0.03729722604458847	-0.04894320798810282	-0.7301736543065056	-0.2671435895541261	-0.4880820269305149	2.346934498414593	-0.0346519653647578	0.6149091234323466	-0.6219704231564083	1.762317986537875	1.762317986537903	-0.005638526374571289	0.0005085044492718546	0.2394937322209962	-0.008222185735755632	-0.2423074109029464	0.0198857003580721	-0.02142570038755495	-0.2030368113376328	0.1409661460084594	0.04022593395415542	0.2185954794827152	6.397754561609762	-21.38460841101493	6.19861784104631	-5.020525777080166	-607.567858638218	-57.60363140802371	-28.72480474526893	0.6083608352342574	0.6834769485631867	-0.316048272075163	-1.493511117844637	0.5944200533023092	-0.2942202493152937	1.753066324436111	-1.07576058064996	-1.075760580649976	0.03021485830952547	-0.02452542229318886	-0.129423051205522	0.5741656227840934	-2.52182146320991e-07	-8.334277915301184e-07	1.252961427708114e-06	4.957865491937958e-08	-3.419437071406748e-07	9.046618995157641e-09	-2.942555027782901e-07
0.51	-0.4487651318001686	-0.07454725847102733	0.7607971981324961	1.274968375347227	-0.3100723884820896	-0.04247932473435864	-0.3346621265961383	0.6992486314696601	0.6992486314696609	-0.1735407205097255	0.1744756729362326	0.0396846901095922	-0.04899833897564383	-0.7236853756668058	-0.2602317519291396	-0.4909409425223126	2.33087867217427	-0.02901197537144609	0.6118242556906779	-0.6043935508036065	1.750765773427941	1.750765773427919	-0.005884514103278473	0.0003885248065139971	0.2379492717666593	-0.002814942197651787	-0.2503073063490711	0.02049168054769925	-0.02153491964539265	-0.2042845019835347	0.1407018303145903	0.04081214163902616	0.2247798224726042	6.077203642340091	-21.47468840563889	6.089178215457213	-4.937797829320624	-611.9479157116388	-57.23371366239291	-27.70733354283384	0.6828766532559726	0.6981010882971372	-0.2561565762714815	-1.706415824640033	0.5472230988587991	-0.3315070878121489	1.769120030304053	-1.229412860384843	-1.229412860392334	-0.048083016865773	-0.002905044906573305	-0.1744302964541421	0.5222971626204759	-3.08692987815439e-07	-6.637896869996066e-07	1.525767759529806e-06	1.140598639468946e-07	-3.681899156353739e-07	6.377862369336379e-08	-3.184335858609639e-07
0.52	-0.4559672429118843	-0.0771145054213612	0.755875934386611	1.298189415116494	-0.3103345729997628	-0.03637916413309952	-0.3406166573524768	0.7166927867699748	0.7166927867699738	-0.1736001433972362	0.1744794187263412	0.04205521501927131	-0.04899973883914441	-0.7166444860303818	-0.2531973575509205	-0.4932135930556874	2.313030948033389	-0.02343460031760649	0.6081039059002298	-0.5864517848667316	1.737835112949216	1.737835112949144	-0.005973598968182611	0.000381712778176822	0.2361059011560678	0.002524039072330113	-0.2583072017951962	0.02109766073732683	-0.02164413890323786	-0.2055321926294355	0.1404375146207214	0.04139834932389738	0.2309641654624926	5.752216222746247	-21.56781329650789	5.984590134937883	-4.870015992095231	-616.4152197041996	-56.94243769854924	-26.68431415595872	0.7188830345790784	0.7079882992097067	-0.1987952603906018	-1.851890697956273	0.5818970654078872	-0.4213166590711357	1.826045041250715	-1.351450054408321	-1.351450054408318	0.06159543107013388	-0.001891899409055527	-0.1892050824564397	0.5605131691597062	-3.025521718696704e-07	-5.792142630476659e-07	1.507599542892536e-06	1.239715208722807e-07	-3.502546647469364e-07	9.837901198495373e-08	-3.064936834141594e-07
0.53	-0.4630963219269192	-0.07961086795259092	0.7509348982607604	1.321223242417975	-0.3105413092757509	-0.03031885911430377	-0.3463900154348914	0.7340007689319473	0.7340007689319454	-0.1736598575799291	0.1744832447058462	0.04440584014539235	-0.04894810472680364	-0.7090844984327525	-0.2460608973487574	-0.4948922478516089	2.293441980450242	-0.0179348669429881	0.6038862208632431	-0.5681737358058672	1.72352941011344	1.72352941011339	-0.00597482653139214	0.0003821158075130562	0.2339682659885462	0.007778486973328514	-0.2661298810673353	0.02151356403029573	-0.02173074032608439	-0.2069330414862861	0.140312908840628	0.0417688890193127	0.2369667023654596	5.465881109712844	-21.57561036689901	5.868189892917323	-4.77362082880165	-620.8628283558933	-56.52985483961597	-25.66154456486981	0.7875430623927147	0.718638418193474	-0.1372611165921147	-2.056323882119028	0.5305463100167243	-0.4328919937492776	1.835599210048916	-1.504856753495403	-1.50485675349219	-0.03184513928534982	0.0004817279714497379	-0.233669530087064	0.5041763840206692	-2.805009401932194e-07	-5.199056533057663e-07	1.412666884271838e-06	1.169010993217287e-07	-3.200563873088887e-07	1.199985309123854e-07	-2.856069922707853e-07
0.54	-0.4701472037779702	-0.08203543317430421	0.7459801034814707	1.3440523952249	-0.3106937412506873	-0.02430291045942517	-0.3519792101523884	0.7511587487944954	0.7511587487944928	-0.1737197566961078	0.1744869697804181	0.04673356356060076	-0.04884467297876272	-0.7010050532336098	-0.238837895647637	-0.4959653237434998	2.272096049122091	-0.0125737401072532	0.5992326331167829	-0.5496191118832185	1.707834653064334	1.707834653064306	-0.006010585665355531	0.0003615317915089522	0.2315255589735429	0.01288356621235759	-0.2739525603394751	0.02192946732326478	-0.02181734174893278	-0.2083338903431365	0.1401883030605347	0.04213942871472822	0.2429692392684259	5.17540880259838	-21.58627299018445	5.756347877259651	-4.694770614430593	-625.3946898594111	-56.19108302785101	-24.63952103446157	0.8227745548817296	0.7252965990011626	-0.07767947958449051	-2.203283446956978	0.5541757576311918	-0.5084972009657865	1.881360013607547	-1.629260897074404	-1.629260897074365	0.05468911691936081	-0.006089308477125596	-0.2502194519527901	0.5306394367658436	-2.408466953679278e-07	-4.885518167324233e-07	1.232803353669474e-06	9.104199520205358e-08	-2.762905060287189e-07	1.2725623692628e-07	-2.548217263992916e-07
0.55	-0.4771148281395357	-0.08438740679850325	0.7410176025343377	1.366659647955978	-0.3107930792085599	-0.01833586922004711	-0.3573815215916344	0.7681531236894424	0.7681531236894376	-0.1737796287415395	0.1744904739702283	0.04903549102400628	-0.04869073453175955	-0.6924386598353398	-0.2315486425459634	-0.4964322851037262	2.249074120426183	-0.007322032073744221	0.5941155996665664	-0.5308102752005912	1.690817660060804	1.690817660060802	-0.005977277791799667	0.0003321878804120119	0.2288129780062892	0.01787394557417038	-0.2815793645892713	0.02215052918520418	-0.02187682868387303	-0.2097860178707293	0.1400897071875138	0.04236606733018732	0.2487679261621903	4.894455373089114	-21.53720126209719	5.63623286695306	-4.572921264521407	-629.8228925611685	-55.7764762397662	-23.61893058747419	0.8857173023963588	0.7319830500929164	-0.0158678609733573	-2.393738175549556	0.5063462120337083	-0.5225200576653932	1.885580610395786	-1.771270775670394	-1.771270775666337	-0.02440271425039451	-0.002671771047625095	-0.2888191477107317	0.4786528288765852	-2.099662242749858e-07	-4.524127913679545e-07	1.099609239105098e-06	7.295197328386665e-08	-2.402408881812035e-07	1.368048704022588e-07	-2.30290944508041e-07
0.5600000000000001	-0.4839943594530989	-0.08666623921481702	0.7360534992942559	1.389028263281169	-0.3108407645089329	-0.01242184104329474	-0.3625947576410931	0.7849706581996179	0.784970658199612	-0.173839578575599	0.1744934217532055	0.05130888433201937	-0.04848780916254072	-0.6833864436332011	-0.2242096540705877	-0.4962857823332205	2.224368567944599	-0.002243208607316384	0.588630020591717	-0.5118040339257458	1.672466576110152	1.672466576110177	-0.006026143391207594	0.000250250424449145	0.2258187278950726	0.02268095065548685	-0.2892061688390689	0.02237159104714238	-0.0219363156187922	-0.2112381453983252	0.1399911113144922	0.04259270594564505	0.2545666130559539	4.607848876995728	-21.48997348708648	5.519649252273699	-4.458545319762135	-634.3537043294913	-55.42519950523138	-22.60078280898053	0.9199391156554561	0.7352436737415737	0.04501334656193277	-2.540008204092262	0.5195988442149659	-0.5822063258923484	1.920840932051157	-1.896079086498708	-1.896079086498708	0.03825442232660154	-0.01660801745031202	-0.3065532807453726	0.4939645806665797	-1.896142816608631e-07	-4.105315394541349e-07	1.022418423786305e-06	6.418485000746531e-08	-2.13450786452873e-07	1.491026168327386e-07	-2.132655433930822e-07
0.5700000000000001	-0.4907810665511649	-0.08887150404488693	0.7310939220099815	1.411141725976365	-0.3108383042917285	-0.006565114819967236	-0.3676170039552855	0.8015983143652003	0.8015983143651928	-0.1738995551874924	0.1744956426134322	0.05355108208217083	-0.04823748024476206	-0.6738801840677087	-0.2168413847632421	-0.4955265254094269	2.198059162124515	0.00271455180500745	0.5825973385688128	-0.4926251956397126	1.652860645071575	1.652860645071657	-0.005923251322824794	0.0002225309020678641	0.2225820741512229	0.02736352322495861	-0.2966098905083243	0.02239937470766883	-0.02197841814197908	-0.2126818817234462	0.1398591998882182	0.04273800817169694	0.2601360357951422	4.317014723881593	-21.40777222551378	5.398735695814524	-4.299114711987285	-638.7258185284984	-55.04531997289151	-21.58624137953104	0.9771645573651954	0.7379194813923142	0.1068145727680209	-2.716156255146321	0.4806735624864214	-0.6316622129531119	1.919410267829882	-2.023411175763917	-2.02341117575541	0.003163505895142367	0.008223679640196626	-0.3380301005431715	0.452153974884746	-1.71538414168838e-07	-3.592008443048364e-07	9.488354829039997e-07	5.786337576183895e-08	-1.888564006802508e-07	1.585393359250633e-07	-1.959732316272302e-07
